HIERARCHY
ROOT Hips
{
  OFFSET 5.84602e-005 68.8428 3.50346
  CHANNELS 6 Xposition Yposition Zposition Zrotation Xrotation Yrotation
  JOINT Spine
  {
    OFFSET 0 8.597 -4.6522
    CHANNELS 3 Zrotation Xrotation Yrotation
    JOINT Spine1
    {
      OFFSET 0 7.8454 0.4098
      CHANNELS 3 Zrotation Xrotation Yrotation
      JOINT Spine2
      {
        OFFSET 0 9.7078 -2.1609
        CHANNELS 3 Zrotation Xrotation Yrotation
        JOINT Neck
        {
          OFFSET 0 21.8761 -0.4549
          CHANNELS 3 Zrotation Xrotation Yrotation
          JOINT Head
          {
            OFFSET 0 12.3537 3.3602
            CHANNELS 3 Zrotation Xrotation Yrotation
            End Site
            {
              OFFSET 0.0001 18.9506 0.5657
            }
          }
        }
        JOINT LeftShoulder
        {
          OFFSET 2.2086 21.1115 7.2329
          CHANNELS 3 Zrotation Xrotation Yrotation
          JOINT LeftArm
          {
            OFFSET 13.1193 3.0282 -4.8998
            CHANNELS 3 Zrotation Xrotation Yrotation
            JOINT LeftForeArm
            {
              OFFSET 27.4081 -0.0973053 -0.2375
              CHANNELS 3 Zrotation Xrotation Yrotation
              JOINT LeftHand
              {
                OFFSET 22.8641 0.0662994 -0.1369
                CHANNELS 3 Zrotation Xrotation Yrotation
                JOINT LeftHandIndex1
                {
                  OFFSET 8.8614 0.775009 2.4612
                  CHANNELS 3 Zrotation Xrotation Yrotation
                  JOINT LeftHandIndex2
                  {
                    OFFSET 3.3146 -0.808304 0.5841
                    CHANNELS 3 Zrotation Xrotation Yrotation
                    JOINT LeftHandIndex3
                    {
                      OFFSET 2.2628 -0.552002 0.3989
                      CHANNELS 3 Zrotation Xrotation Yrotation
                      End Site
                      {
                        OFFSET 1.6102 -0.4807 0.2612
                      }
                    }
                  }
                }
                JOINT LeftHandMiddle1
                {
                  OFFSET 8.9937 0.895004 0.2143
                  CHANNELS 3 Zrotation Xrotation Yrotation
                  JOINT LeftHandMiddle2
                  {
                    OFFSET 4.0984 0.0113983 -0.0242
                    CHANNELS 3 Zrotation Xrotation Yrotation
                    JOINT LeftHandMiddle3
                    {
                      OFFSET 2.2716 0.00689697 -0.0138001
                      CHANNELS 3 Zrotation Xrotation Yrotation
                      End Site
                      {
                        OFFSET 2.0404 -0.1441 0.0027
                      }
                    }
                  }
                }
                JOINT LeftHandRing1
                {
                  OFFSET 8.5234 0.597198 -2.0164
                  CHANNELS 3 Zrotation Xrotation Yrotation
                  JOINT LeftHandRing2
                  {
                    OFFSET 3.7188 -0.188293 -0.2328
                    CHANNELS 3 Zrotation Xrotation Yrotation
                    JOINT LeftHandRing3
                    {
                      OFFSET 2.1191 -0.106598 -0.1332
                      CHANNELS 3 Zrotation Xrotation Yrotation
                      End Site
                      {
                        OFFSET 1.8737 -0.2304 -0.0886
                      }
                    }
                  }
                }
                JOINT LeftHandPinky1
                {
                  OFFSET 7.9094 -0.601089 -3.4825
                  CHANNELS 3 Zrotation Xrotation Yrotation
                  JOINT LeftHandPinky2
                  {
                    OFFSET 2.2874 -0.477005 -0.6314
                    CHANNELS 3 Zrotation Xrotation Yrotation
                    JOINT LeftHandPinky3
                    {
                      OFFSET 1.6774 -0.349396 -0.4633
                      CHANNELS 3 Zrotation Xrotation Yrotation
                      End Site
                      {
                        OFFSET 1.4888 -0.4091 -0.3416
                      }
                    }
                  }
                }
                JOINT LeftHandThumb1
                {
                  OFFSET 1.833 -1.3875 1.3896
                  CHANNELS 3 Zrotation Xrotation Yrotation
                  JOINT LeftHandThumb2
                  {
                    OFFSET 3.4129 -1.121 2.5732
                    CHANNELS 3 Zrotation Xrotation Yrotation
                    JOINT LeftHandThumb3
                    {
                      OFFSET 2.2474 -0.804199 1.6192
                      CHANNELS 3 Zrotation Xrotation Yrotation
                      End Site
                      {
                        OFFSET 1.6527 -0.5689 1.1317
                      }
                    }
                  }
                }
              }
            }
          }
        }
        JOINT RightShoulder
        {
          OFFSET -2.2086 21.1115 7.2329
          CHANNELS 3 Zrotation Xrotation Yrotation
          JOINT RightArm
          {
            OFFSET -13.1216 3.0287 -4.9007
            CHANNELS 3 Zrotation Xrotation Yrotation
            JOINT RightForeArm
            {
              OFFSET -27.4081 -0.0973053 -0.2375
              CHANNELS 3 Zrotation Xrotation Yrotation
              JOINT RightHand
              {
                OFFSET -22.8641 0.0664063 -0.1369
                CHANNELS 3 Zrotation Xrotation Yrotation
                JOINT RightHandIndex1
                {
                  OFFSET -8.8614 0.774994 2.4612
                  CHANNELS 3 Zrotation Xrotation Yrotation
                  JOINT RightHandIndex2
                  {
                    OFFSET -3.3146 -0.808304 0.5841
                    CHANNELS 3 Zrotation Xrotation Yrotation
                    JOINT RightHandIndex3
                    {
                      OFFSET -2.2628 -0.552002 0.3989
                      CHANNELS 3 Zrotation Xrotation Yrotation
                      End Site
                      {
                        OFFSET -1.6102 -0.4807 0.2612
                      }
                    }
                  }
                }
                JOINT RightHandMiddle1
                {
                  OFFSET -8.9937 0.894989 0.2143
                  CHANNELS 3 Zrotation Xrotation Yrotation
                  JOINT RightHandMiddle2
                  {
                    OFFSET -4.0984 0.0113983 -0.0242
                    CHANNELS 3 Zrotation Xrotation Yrotation
                    JOINT RightHandMiddle3
                    {
                      OFFSET -2.2716 0.00691223 -0.0138001
                      CHANNELS 3 Zrotation Xrotation Yrotation
                      End Site
                      {
                        OFFSET -2.0404 -0.1441 0.0027
                      }
                    }
                  }
                }
                JOINT RightHandRing1
                {
                  OFFSET -8.5234 0.597198 -2.0164
                  CHANNELS 3 Zrotation Xrotation Yrotation
                  JOINT RightHandRing2
                  {
                    OFFSET -3.7188 -0.188309 -0.2328
                    CHANNELS 3 Zrotation Xrotation Yrotation
                    JOINT RightHandRing3
                    {
                      OFFSET -2.1191 -0.106598 -0.1332
                      CHANNELS 3 Zrotation Xrotation Yrotation
                      End Site
                      {
                        OFFSET -1.8737 -0.2304 -0.0886
                      }
                    }
                  }
                }
                JOINT RightHandPinky1
                {
                  OFFSET -7.9094 -0.601105 -3.4825
                  CHANNELS 3 Zrotation Xrotation Yrotation
                  JOINT RightHandPinky2
                  {
                    OFFSET -2.2874 -0.477005 -0.6314
                    CHANNELS 3 Zrotation Xrotation Yrotation
                    JOINT RightHandPinky3
                    {
                      OFFSET -1.6774 -0.349396 -0.4633
                      CHANNELS 3 Zrotation Xrotation Yrotation
                      End Site
                      {
                        OFFSET -1.4888 -0.4091 -0.3416
                      }
                    }
                  }
                }
                JOINT RightHandThumb1
                {
                  OFFSET -1.833 -1.38751 1.3896
                  CHANNELS 3 Zrotation Xrotation Yrotation
                  JOINT RightHandThumb2
                  {
                    OFFSET -3.41299 -1.12099 2.5732
                    CHANNELS 3 Zrotation Xrotation Yrotation
                    JOINT RightHandThumb3
                    {
                      OFFSET -2.24741 -0.804108 1.6192
                      CHANNELS 3 Zrotation Xrotation Yrotation
                      End Site
                      {
                        OFFSET -1.6527 -0.5689 1.1317
                      }
                    }
                  }
                }
              }
            }
          }
        }
      }
    }
  }
  JOINT RightUpLeg
  {
    OFFSET -9.1966 3.8861 -0.7581
    CHANNELS 3 Zrotation Xrotation Yrotation
    JOINT RightLeg
    {
      OFFSET -0.7359 -41.0265 0
      CHANNELS 3 Zrotation Xrotation Yrotation
      JOINT RightFoot
      {
        OFFSET 0 -40.2855 0
        CHANNELS 3 Zrotation Xrotation Yrotation
        JOINT RightToeBase
        {
          OFFSET 0 -5.6122 11.7359
          CHANNELS 3 Zrotation Xrotation Yrotation
          End Site
          {
            OFFSET 0 0 7.8731
          }
        }
      }
    }
  }
  JOINT LeftUpLeg
  {
    OFFSET 9.1965 3.8864 -0.7581
    CHANNELS 3 Zrotation Xrotation Yrotation
    JOINT LeftLeg
    {
      OFFSET 0.7359 -41.0268 0
      CHANNELS 3 Zrotation Xrotation Yrotation
      JOINT LeftFoot
      {
        OFFSET 0 -40.2855 0
        CHANNELS 3 Zrotation Xrotation Yrotation
        JOINT LeftToeBase
        {
          OFFSET 0 -5.6122 11.7359
          CHANNELS 3 Zrotation Xrotation Yrotation
          End Site
          {
            OFFSET 0 0 7.8731
          }
        }
      }
    }
  }
}
MOTION
Frames:	4
Frame Time:	0.0333333
5.84602e-005 68.8428 3.50346 0 0 -0 0 0 -0 0 0 -0 0 0 -0 0 0 -0 0 0 -0 0 0 -0 0 0 -0 0 0 -0 0 0 -0 0 0 -0 0 0 -0 0 0 -0 0 0 -0 -0.0146107 -8.87603e-005 -2.63497e-007 2.99804e-018 -2.42657e-020 -1.42182e-022 0 0 -0 -0.0187562 -0.001176 5.858e-005 5.06224e-018 3.88251e-019 1.21329e-020 0 0 -0 -0.012269 -0.00324817 0.000675346 -1.74678e-018 3.88251e-019 -0 0 0 -0 0 0 -0 0 0 -0 0 0 -0 0 0 -0 0 0 -0 0 0 -0 0 0 -0 0 0 -0 0 0 -0 0 0 -0 0.0149955 -9.10982e-005 2.64101e-007 -9.69331e-018 1.21329e-020 -4.7394e-023 0 0 -0 0.0189956 -0.00119102 -5.96516e-005 -5.41541e-019 0 2.42657e-020 0 0 -0 0.0122698 -0.00324857 -0.000673756 -2.00796e-019 0 -1.94126e-019 0 0 -0 0 0 -0 0 0 -0 3.39842 1.33031 -0.0637918 -5.65207e-008 0.834868 -0.000436188 -3.39935 -2.16518 -0.0642563 -8.89002e-024 -1.18485e-023 -1.48106e-024 -3.39844 1.35642 0.0640283 -3.18788e-007 0.782166 -0.000588827 3.39931 -2.13858 0.0634662 1.1399e-023 0 -0 
41.2567 3.74566 28.1655 -168.753 62.6796 -6.75477e-007 0.593902 7.52576 -0.5858 1.283 15.0445 -1.2677 1.283 15.0445 -1.26769 -6.49671e-005 15.038 2.83732e-005 -8.50456e-008 0.285525 -9.54006e-007 -47.213 -4.01885 0.781696 0.15381 58.6708 2.48062 2.06842 38.5174 -4.58206 2.29431 11.6362 -5.37262 7.51726e-007 3.77676e-007 1.37592e-007 1.12759e-006 5.66514e-007 2.06388e-007 7.51726e-007 3.77676e-007 1.37592e-007 7.51726e-007 3.77676e-007 1.37592e-007 -0.0145866 -8.99857e-005 -2.6399e-006 1.10911e-006 -3.17135e-007 1.24192e-007 7.51726e-007 3.77676e-007 1.37592e-007 -0.0187604 -0.00117709 6.14115e-005 7.5172e-007 3.77653e-007 1.37646e-007 7.51726e-007 3.77676e-007 1.37592e-007 -0.0122841 -0.00325323 0.000680782 1.1088e-006 -3.16716e-007 1.24077e-007 7.51726e-007 3.77676e-007 1.37592e-007 1.12759e-006 5.66514e-007 2.06388e-007 7.51726e-007 3.77676e-007 1.37592e-007 50.6149 -3.91569 -14.6626 44.1791 -10.5344 70.0886 -133.18 84.2524 -174.919 -11.4232 -29.155 9.43113 1.76851e-006 -2.27948e-007 8.60644e-007 2.50951e-007 -2.06887e-006 1.65736e-006 -1.19271e-014 6.36111e-015 -2.38542e-015 1.76851e-006 -2.27948e-007 8.60644e-007 0.0149625 -9.05515e-005 -7.14594e-007 -2.38542e-015 6.36111e-015 7.95139e-016 1.76851e-006 -2.27948e-007 8.60644e-007 0.0189421 -0.00118815 -5.51113e-005 1.76613e-006 -2.27655e-007 8.6067e-007 1.76851e-006 -2.27948e-007 8.60644e-007 0.01233 -0.00326295 -0.000680325 -6.75868e-015 0 -7.95139e-016 1.76851e-006 -2.27948e-007 8.60644e-007 2.50951e-007 -2.06887e-006 1.65736e-006 -1.19271e-014 6.36111e-015 -2.38542e-015 -48.4061 -48.3986 -79.6049 -124.214 35.1231 139.116 -18.3431 -2.99482 -35.1201 3.40467e-007 1.19722e-007 -2.27946e-007 62.0959 -48.146 90.7253 135.046 38.1681 -125.149 24.9774 -11.5205 11.4955 -1.03378e-006 7.69162e-007 4.26386e-006 
39.9558 8.61567 26.3975 179.997 58.9977 -1.13208e-010 0.553229 7.25917 -0.552762 1.19223 14.5122 -1.19135 1.19223 14.5122 -1.19135 4.28527e-006 14.7712 -4.00015e-006 -7.28227e-007 0.785983 5.21056e-007 -45.2023 -3.73926 -0.395336 0.138342 55.2064 4.20431 2.27205 36.2236 -5.19559 2.51583 10.2017 -5.04546 3.18055e-015 1.59028e-015 -1.27222e-014 -3.24468e-007 4.72762e-007 -2.41634e-006 -8.13967e-007 -3.27752e-007 -8.57866e-007 3.18055e-015 1.59028e-015 -1.27222e-014 -0.0146062 -8.84075e-005 3.35456e-006 -7.766e-007 -3.41281e-007 -9.19807e-008 3.18055e-015 1.59028e-015 -1.27222e-014 -0.0187505 -0.00117737 6.21941e-005 -7.76602e-007 -3.41278e-007 -9.19856e-008 3.18055e-015 1.59028e-015 -1.27222e-014 -0.0122629 -0.00324493 0.00067923 -8.12354e-007 -3.27222e-007 -8.57969e-007 3.18055e-015 1.59028e-015 -1.27222e-014 -3.24468e-007 4.72762e-007 -2.41634e-006 -8.13967e-007 -3.27752e-007 -8.57866e-007 47.425 -4.32023 -13.7541 41.0692 -11.5843 67.087 63.8777 87.7926 -12.0969 -11.7966 -27.4139 8.86372 -3.17348e-007 1.43275e-006 7.84507e-007 -3.17348e-007 1.43275e-006 7.84507e-007 6.36111e-015 6.36111e-015 -1.59028e-015 -3.17348e-007 1.43275e-006 7.84507e-007 0.0149893 -9.11089e-005 -1.86752e-006 -1.19271e-015 6.36111e-015 -1.59028e-015 -3.17348e-007 1.43275e-006 7.84507e-007 0.0190157 -0.00118794 -5.94864e-005 -7.55382e-015 6.36111e-015 -3.97569e-015 -3.17348e-007 1.43275e-006 7.84507e-007 0.0122355 -0.00323892 -0.000670811 -5.96354e-015 6.36111e-015 1.59028e-015 -3.17348e-007 1.43275e-006 7.84507e-007 -3.17348e-007 1.43275e-006 7.84507e-007 6.36111e-015 6.36111e-015 -1.59028e-015 -42.7324 -49.5832 -73.9379 -120.702 41.6541 137.475 -17.5893 -3.35323 -33.2088 -6.52841e-007 -2.45592e-007 4.88051e-007 56.0853 -50.7401 85.1849 129.418 43.1708 -123.076 23.8396 -11.2916 10.8719 9.95271e-007 1.40384e-006 3.11563e-006 
39.9565 8.61298 26.1649 179.997 58.9977 -1.13208e-010 0.551399 7.42567 -0.557386 1.19155 14.8452 -1.20288 1.19155 14.8452 -1.20288 -4.34073e-006 15.3548 5.60373e-006 2.55474e-007 1.27459 5.25041e-007 -45.9234 -3.68428 -1.46397 -0.0997188 55.1861 6.16878 2.77791 36.1793 -6.15015 2.90973 9.48788 -5.03992 7.88056e-008 6.30717e-007 -2.3717e-006 7.44658e-007 6.58075e-007 2.47757e-006 7.88057e-008 6.30717e-007 -2.3717e-006 7.88056e-008 6.30717e-007 -2.3717e-006 -0.0146048 -8.84723e-005 6.34865e-007 -7.95139e-016 2.78299e-014 6.36111e-015 7.88056e-008 6.30717e-007 -2.3717e-006 -0.018756 -0.00117591 6.1803e-005 7.65068e-008 6.30963e-007 -2.37159e-006 7.88056e-008 6.30717e-007 -2.3717e-006 -0.0122642 -0.00324583 0.000674716 -1.59028e-015 2.78299e-014 -0 7.88056e-008 6.30717e-007 -2.3717e-006 7.44658e-007 6.58075e-007 2.47757e-006 7.88057e-008 6.30717e-007 -2.3717e-006 47.1717 -4.90692 -13.7166 41.2662 -11.5418 67.9909 78.6569 88.935 -25.6891 -12.5016 -27.3539 8.98585 -2.78299e-015 6.36111e-015 -2.38542e-015 -2.38542e-015 -3.18055e-015 -1.59028e-015 -2.38542e-015 0 -7.95139e-016 -2.78299e-015 6.36111e-015 -2.38542e-015 0.015008 -8.60175e-005 -2.96137e-006 7.15625e-015 6.36111e-015 -0 -2.78299e-015 6.36111e-015 -2.38542e-015 0.0189863 -0.0011918 -5.97165e-005 -7.95139e-016 -9.54166e-015 2.38542e-015 -2.78299e-015 6.36111e-015 -2.38542e-015 0.0122516 -0.00324575 -0.000674363 -4.37326e-015 6.36111e-015 -4.77083e-015 -2.78299e-015 6.36111e-015 -2.38542e-015 -2.38542e-015 -3.18055e-015 -1.59028e-015 -2.38542e-015 0 -7.95139e-016 -43.2821 -49.8607 -74.4115 -120.707 41.6524 137.48 -17.5933 -3.361 -33.2117 -3.82572e-007 2.14479e-006 5.45542e-006 56.8284 -50.9681 85.8061 129.836 42.5596 -123.698 23.8599 -11.6569 10.7273 -1.27609e-006 5.28653e-007 9.97209e-007 
